<svg width="245" height="242" viewBox="0 0 245 242" fill="none" xmlns="http://www.w3.org/2000/svg">
<path fill-rule="evenodd" clip-rule="evenodd" d="M60.9669 225.688C68.6664 202.012 56.1966 176.449 32.7334 168.229C25.2189 165.597 17.4748 165.059 10.1325 166.307C9.58651 166.4 9.0613 166.044 8.95854 165.5L0.573085 121.095C0.470879 120.554 0.829075 120.032 1.36757 119.917C25.6547 114.697 41.5029 91.1523 36.8962 66.7617C35.4224 58.9593 32.0303 52 27.2966 46.274C26.9441 45.8475 26.9901 45.2154 27.4096 44.8547L61.675 15.389C62.0922 15.0302 62.7223 15.0792 63.092 15.4868C79.7616 33.8692 108.043 35.8069 126.85 19.6349C132.887 14.4435 137.225 8.00665 139.814 1.02225C140.006 0.502915 140.577 0.225925 141.1 0.409054L183.748 15.3504C184.268 15.5325 184.54 16.1034 184.371 16.6276C176.749 40.271 189.214 65.7656 212.641 73.9729C220.195 76.6192 227.981 77.1479 235.359 75.8729C235.905 75.7784 236.432 76.1344 236.535 76.6797L244.919 121.079C245.022 121.622 244.662 122.144 244.122 122.258C219.769 127.427 203.865 151.008 208.478 175.439C209.967 183.326 213.416 190.349 218.229 196.109C218.586 196.535 218.541 197.17 218.12 197.532L183.861 226.992C183.443 227.352 182.81 227.301 182.441 226.89C165.793 208.343 137.39 206.344 118.524 222.567C112.454 227.786 108.104 234.265 105.519 241.292C105.328 241.813 104.756 242.091 104.232 241.908L61.5895 226.968C61.0687 226.785 60.7963 226.213 60.9669 225.688ZM123 185C158.346 185 187 156.346 187 121C187 85.6538 158.346 57 123 57C87.6538 57 59 85.6538 59 121C59 156.346 87.6538 185 123 185Z" fill="white"/>
</svg>
