<svg width="182" height="180" viewBox="0 0 182 180" fill="none" xmlns="http://www.w3.org/2000/svg">
<path fill-rule="evenodd" clip-rule="evenodd" d="M44.3783 167.262C50.3384 149.755 41.2875 130.662 23.9335 124.396C18.3413 122.376 12.5611 121.933 7.07495 122.836C6.7496 122.89 6.43887 122.675 6.38078 122.35L0.437264 89.1386C0.379485 88.8158 0.595977 88.5071 0.917527 88.4426C19.0104 84.8131 30.9782 67.4545 27.7326 49.3213C26.6878 43.4848 24.192 38.2696 20.6806 33.9763C20.472 33.7213 20.5031 33.3451 20.7549 33.1327L46.5469 11.379C46.7974 11.1677 47.1725 11.2006 47.3892 11.4463C59.5837 25.2698 80.5762 26.9437 94.6473 15.0757C99.1922 11.2425 102.466 6.4589 104.426 1.2549C104.543 0.94628 104.884 0.784651 105.194 0.896654L136.928 12.356C137.237 12.4674 137.396 12.8092 137.291 13.1199C131.388 30.6038 140.436 49.6455 157.763 55.9024C163.385 57.9322 169.196 58.3687 174.709 57.4457C175.035 57.3912 175.347 57.6063 175.405 57.9315L181.347 91.1403C181.405 91.4637 181.188 91.7728 180.866 91.8366C162.724 95.4278 150.714 112.813 153.964 130.976C155.02 136.875 157.558 142.138 161.129 146.457C161.339 146.711 161.309 147.09 161.056 147.303L135.268 169.053C135.017 169.265 134.64 169.231 134.424 168.983C122.247 155.037 101.165 153.317 87.0489 165.222C82.4799 169.076 79.1963 173.891 77.2396 179.126C77.1239 179.436 76.7817 179.598 76.471 179.486L44.7404 168.028C44.4314 167.916 44.2724 167.573 44.3783 167.262ZM90.6288 137.448C116.791 137.698 138.203 116.692 138.453 90.5294C138.703 64.367 117.697 42.9554 91.5345 42.7053C65.3721 42.4552 43.9605 63.4613 43.7104 89.6237C43.4603 115.786 64.4664 137.198 90.6288 137.448Z" fill="white"/>
</svg>
