<svg width="231" height="150" viewBox="0 0 231 150" fill="none" xmlns="http://www.w3.org/2000/svg">
<g filter="url(#filter0_d_825_3860)">
<path d="M31.1993 110.033C31.088 110.574 31.4364 111.103 31.978 111.212C62.2836 117.277 93.6481 115.415 123.032 105.798C152.417 96.1815 178.813 79.14 199.67 56.3314C200.042 55.9238 200.011 55.291 199.601 54.9206L169.053 27.2987C168.644 26.9283 168.011 26.9605 167.638 27.3675C151.825 44.5997 131.839 57.478 109.601 64.756C87.3619 72.0341 63.6296 73.4633 40.688 68.9142C40.1463 68.8068 39.6173 69.1546 39.5059 69.6955L31.1993 110.033Z" fill="white"/>
</g>
<defs>
<filter id="filter0_d_825_3860" x="0.178711" y="0.0402832" width="230.751" height="149.661" filterUnits="userSpaceOnUse" color-interpolation-filters="sRGB">
<feFlood flood-opacity="0" result="BackgroundImageFix"/>
<feColorMatrix in="SourceAlpha" type="matrix" values="0 0 0 0 0 0 0 0 0 0 0 0 0 0 0 0 0 0 127 0" result="hardAlpha"/>
<feOffset dy="4"/>
<feGaussianBlur stdDeviation="15.5"/>
<feComposite in2="hardAlpha" operator="out"/>
<feColorMatrix type="matrix" values="0 0 0 0 0 0 0 0 0 0 0 0 0 0 0 0 0 0 0.06 0"/>
<feBlend mode="normal" in2="BackgroundImageFix" result="effect1_dropShadow_825_3860"/>
<feBlend mode="normal" in="SourceGraphic" in2="effect1_dropShadow_825_3860" result="shape"/>
</filter>
</defs>
</svg>
