<svg width="163" height="103" viewBox="0 0 163 103" fill="none" xmlns="http://www.w3.org/2000/svg">
<g filter="url(#filter0_d_825_3901)">
<path d="M18.8217 78.0544C18.7554 78.3765 18.9629 78.6915 19.2853 78.7564C41.7618 83.28 65.0302 81.911 86.8266 74.7777C108.623 67.6444 128.199 54.9919 143.652 38.0551C143.874 37.8122 143.855 37.4354 143.611 37.2148L120.784 16.5746C120.54 16.354 120.164 16.3733 119.942 16.6159C108.222 29.4249 93.3916 38.9957 76.8843 44.398C60.3771 49.8003 42.7581 50.849 25.7325 47.4476C25.4101 47.3832 25.095 47.5903 25.0287 47.9124L18.8217 78.0544Z" fill="#61BE80"/>
</g>
<defs>
<filter id="filter0_d_825_3901" x="0.351294" y="0.344335" width="161.914" height="101.864" filterUnits="userSpaceOnUse" color-interpolation-filters="sRGB">
<feFlood flood-opacity="0" result="BackgroundImageFix"/>
<feColorMatrix in="SourceAlpha" type="matrix" values="0 0 0 0 0 0 0 0 0 0 0 0 0 0 0 0 0 0 127 0" result="hardAlpha"/>
<feOffset dy="2.38171"/>
<feGaussianBlur stdDeviation="9.22914"/>
<feComposite in2="hardAlpha" operator="out"/>
<feColorMatrix type="matrix" values="0 0 0 0 0 0 0 0 0 0 0 0 0 0 0 0 0 0 0.06 0"/>
<feBlend mode="normal" in2="BackgroundImageFix" result="effect1_dropShadow_825_3901"/>
<feBlend mode="normal" in="SourceGraphic" in2="effect1_dropShadow_825_3901" result="shape"/>
</filter>
</defs>
</svg>
