<svg width="30" height="32" viewBox="0 0 30 32" fill="none" xmlns="http://www.w3.org/2000/svg">
<path d="M21.3333 19.1667H8.66667C8.24674 19.1667 7.84401 19.3336 7.54708 19.6305C7.25015 19.9274 7.08333 20.3302 7.08333 20.7501C7.08333 21.17 7.25015 21.5727 7.54708 21.8697C7.84401 22.1666 8.24674 22.3334 8.66667 22.3334H21.3333C21.7533 22.3334 22.156 22.1666 22.4529 21.8697C22.7499 21.5727 22.9167 21.17 22.9167 20.7501C22.9167 20.3302 22.7499 19.9274 22.4529 19.6305C22.156 19.3336 21.7533 19.1667 21.3333 19.1667ZM21.3333 12.8334H11.8333C11.4134 12.8334 11.0107 13.0002 10.7137 13.2972C10.4168 13.5941 10.25 13.9968 10.25 14.4167C10.25 14.8367 10.4168 15.2394 10.7137 15.5363C11.0107 15.8333 11.4134 16.0001 11.8333 16.0001H21.3333C21.7533 16.0001 22.156 15.8333 22.4529 15.5363C22.7499 15.2394 22.9167 14.8367 22.9167 14.4167C22.9167 13.9968 22.7499 13.5941 22.4529 13.2972C22.156 13.0002 21.7533 12.8334 21.3333 12.8334ZM27.6667 3.33341H22.9167V1.75008C22.9167 1.33016 22.7499 0.927428 22.4529 0.630496C22.156 0.333563 21.7533 0.166748 21.3333 0.166748C20.9134 0.166748 20.5107 0.333563 20.2137 0.630496C19.9168 0.927428 19.75 1.33016 19.75 1.75008V3.33341H16.5833V1.75008C16.5833 1.33016 16.4165 0.927428 16.1196 0.630496C15.8227 0.333563 15.4199 0.166748 15 0.166748C14.5801 0.166748 14.1773 0.333563 13.8804 0.630496C13.5835 0.927428 13.4167 1.33016 13.4167 1.75008V3.33341H10.25V1.75008C10.25 1.33016 10.0832 0.927428 9.78625 0.630496C9.48932 0.333563 9.08659 0.166748 8.66667 0.166748C8.24674 0.166748 7.84401 0.333563 7.54708 0.630496C7.25015 0.927428 7.08333 1.33016 7.08333 1.75008V3.33341H2.33333C1.91341 3.33341 1.51068 3.50023 1.21375 3.79716C0.916815 4.0941 0.75 4.49682 0.75 4.91675V27.0834C0.75 28.3432 1.25045 29.5514 2.14124 30.4422C3.03204 31.333 4.24022 31.8334 5.5 31.8334H24.5C25.7598 31.8334 26.968 31.333 27.8588 30.4422C28.7496 29.5514 29.25 28.3432 29.25 27.0834V4.91675C29.25 4.49682 29.0832 4.0941 28.7863 3.79716C28.4893 3.50023 28.0866 3.33341 27.6667 3.33341ZM26.0833 27.0834C26.0833 27.5033 25.9165 27.9061 25.6196 28.203C25.3227 28.4999 24.9199 28.6667 24.5 28.6667H5.5C5.08007 28.6667 4.67735 28.4999 4.38041 28.203C4.08348 27.9061 3.91667 27.5033 3.91667 27.0834V6.50008H7.08333V8.08342C7.08333 8.50334 7.25015 8.90607 7.54708 9.203C7.84401 9.49993 8.24674 9.66675 8.66667 9.66675C9.08659 9.66675 9.48932 9.49993 9.78625 9.203C10.0832 8.90607 10.25 8.50334 10.25 8.08342V6.50008H13.4167V8.08342C13.4167 8.50334 13.5835 8.90607 13.8804 9.203C14.1773 9.49993 14.5801 9.66675 15 9.66675C15.4199 9.66675 15.8227 9.49993 16.1196 9.203C16.4165 8.90607 16.5833 8.50334 16.5833 8.08342V6.50008H19.75V8.08342C19.75 8.50334 19.9168 8.90607 20.2137 9.203C20.5107 9.49993 20.9134 9.66675 21.3333 9.66675C21.7533 9.66675 22.156 9.49993 22.4529 9.203C22.7499 8.90607 22.9167 8.50334 22.9167 8.08342V6.50008H26.0833V27.0834Z" fill="#61BE80"/>
</svg>
