<svg width="38" height="38" viewBox="0 0 38 38" fill="none" xmlns="http://www.w3.org/2000/svg">
<path d="M33.5835 25.1593C32.5762 27.5414 31.0007 29.6405 28.9948 31.273C26.9888 32.9056 24.6135 34.0219 22.0765 34.5244C19.5395 35.0268 16.918 34.9002 14.4412 34.1555C11.9644 33.4108 9.70779 32.0707 7.86858 30.2523C6.02937 28.434 4.66359 26.1928 3.89064 23.7247C3.11769 21.2566 2.9611 18.6367 3.43458 16.0941C3.90805 13.5515 4.99717 11.1636 6.6067 9.13917C8.21624 7.11472 10.2972 5.51538 12.6676 4.48096" stroke="#61BE80" stroke-width="4" stroke-linecap="round" stroke-linejoin="round"/>
<path d="M34.8333 19.0001C34.8333 16.9208 34.4238 14.8619 33.6281 12.9409C32.8324 11.0199 31.6661 9.27449 30.1959 7.80422C28.7256 6.33396 26.9801 5.16769 25.0592 4.37199C23.1382 3.57629 21.0793 3.16675 19 3.16675V19.0001H34.8333Z" stroke="#61BE80" stroke-width="4" stroke-linecap="round" stroke-linejoin="round"/>
</svg>
