<svg width="39" height="39" viewBox="0 0 39 39" fill="none" xmlns="http://www.w3.org/2000/svg">
<path d="M33.9196 26.2007L34.0407 13.5346C34.0455 12.9793 33.9041 12.4325 33.6308 11.9491C33.3575 11.4657 32.9619 11.0627 32.4837 10.7804L21.4614 4.34146C20.9827 4.05893 20.438 3.9074 19.8822 3.90209C19.3263 3.89677 18.7789 4.03787 18.2948 4.31119L7.15148 10.5383C6.66793 10.8113 6.26468 11.2067 5.98219 11.6848C5.69971 12.1629 5.54791 12.7069 5.54203 13.2622L5.42095 25.9283C5.41621 26.4836 5.55758 27.0303 5.83088 27.5138C6.10417 27.9972 6.49978 28.4002 6.97803 28.6825L18.0003 35.1214C18.479 35.404 19.0237 35.5555 19.5795 35.5608C20.1354 35.5661 20.6828 35.425 21.1668 35.1517L32.3102 28.9246C32.7938 28.6516 33.197 28.2562 33.4795 27.7781C33.762 27.3 33.9138 26.756 33.9196 26.2007Z" stroke="#61BE80" stroke-width="3.16667" stroke-linecap="round" stroke-linejoin="round"/>
<path d="M5.98535 11.6199L19.7308 19.7475L33.6291 11.8841" stroke="#61BE80" stroke-width="3.16667" stroke-linecap="round" stroke-linejoin="round"/>
<path d="M19.5789 35.691L19.7314 19.7317" stroke="#61BE80" stroke-width="3.16667" stroke-linecap="round" stroke-linejoin="round"/>
</svg>
