<svg width="101" height="164" viewBox="0 0 101 164" fill="none" xmlns="http://www.w3.org/2000/svg">
<g filter="url(#filter0_d_825_3884)">
<path d="M23.5158 16.741C23.1958 16.6652 22.8747 16.8634 22.8004 17.1837C17.6161 39.5171 18.2985 62.8157 24.7862 84.813C31.2738 106.81 43.3437 126.75 59.8175 142.696C60.0538 142.925 60.431 142.917 60.6586 142.68L81.9628 120.472C82.1905 120.235 82.1824 119.858 81.9464 119.629C69.4885 107.536 60.3591 92.4299 55.4458 75.7706C50.5325 59.1112 50.0036 41.469 53.9054 24.5511C53.9793 24.2307 53.7816 23.9097 53.4616 23.8339L23.5158 16.741Z" fill="white"/>
</g>
<defs>
<filter id="filter0_d_825_3884" x="0.901098" y="0.64829" width="99.6861" height="163.054" filterUnits="userSpaceOnUse" color-interpolation-filters="sRGB">
<feFlood flood-opacity="0" result="BackgroundImageFix"/>
<feColorMatrix in="SourceAlpha" type="matrix" values="0 0 0 0 0 0 0 0 0 0 0 0 0 0 0 0 0 0 127 0" result="hardAlpha"/>
<feOffset dy="2.38171"/>
<feGaussianBlur stdDeviation="9.22914"/>
<feComposite in2="hardAlpha" operator="out"/>
<feColorMatrix type="matrix" values="0 0 0 0 0 0 0 0 0 0 0 0 0 0 0 0 0 0 0.06 0"/>
<feBlend mode="normal" in2="BackgroundImageFix" result="effect1_dropShadow_825_3884"/>
<feBlend mode="normal" in="SourceGraphic" in2="effect1_dropShadow_825_3884" result="shape"/>
</filter>
</defs>
</svg>
