<svg width="43" height="43" viewBox="0 0 43 43" fill="none" xmlns="http://www.w3.org/2000/svg">
<path d="M21.5 15.125C20.2391 15.125 19.0066 15.4989 17.9582 16.1994C16.9099 16.8999 16.0928 17.8955 15.6103 19.0604C15.1278 20.2253 15.0015 21.5071 15.2475 22.7437C15.4935 23.9803 16.1006 25.1162 16.9922 26.0078C17.8838 26.8994 19.0197 27.5065 20.2563 27.7525C21.4929 27.9985 22.7747 27.8722 23.9396 27.3897C25.1045 26.9072 26.1001 26.0901 26.8006 25.0418C27.5011 23.9934 27.875 22.7609 27.875 21.5C27.875 19.8092 27.2034 18.1877 26.0078 16.9922C24.8123 15.7966 23.1908 15.125 21.5 15.125ZM21.5 23.625C21.0797 23.625 20.6689 23.5004 20.3194 23.2669C19.97 23.0334 19.6976 22.7015 19.5368 22.3132C19.3759 21.9249 19.3338 21.4976 19.4158 21.0854C19.4978 20.6732 19.7002 20.2946 19.9974 19.9974C20.2946 19.7002 20.6732 19.4978 21.0854 19.4158C21.4976 19.3338 21.9249 19.3759 22.3132 19.5368C22.7015 19.6976 23.0334 19.97 23.2669 20.3194C23.5004 20.6689 23.625 21.0797 23.625 21.5C23.625 22.0636 23.4011 22.6041 23.0026 23.0026C22.6041 23.4011 22.0636 23.625 21.5 23.625ZM40.625 19.375H38.3512C37.877 15.635 36.1729 12.1587 33.5071 9.49287C30.8413 6.82708 27.365 5.12303 23.625 4.64875V2.375C23.625 1.81141 23.4011 1.27091 23.0026 0.872398C22.6041 0.473883 22.0636 0.25 21.5 0.25C20.9364 0.25 20.3959 0.473883 19.9974 0.872398C19.5989 1.27091 19.375 1.81141 19.375 2.375V4.64875C15.635 5.12303 12.1587 6.82708 9.49287 9.49287C6.82708 12.1587 5.12303 15.635 4.64875 19.375H2.375C1.81141 19.375 1.27091 19.5989 0.872398 19.9974C0.473883 20.3959 0.25 20.9364 0.25 21.5C0.25 22.0636 0.473883 22.6041 0.872398 23.0026C1.27091 23.4011 1.81141 23.625 2.375 23.625H4.64875C5.12303 27.365 6.82708 30.8413 9.49287 33.5071C12.1587 36.1729 15.635 37.877 19.375 38.3512V40.625C19.375 41.1886 19.5989 41.7291 19.9974 42.1276C20.3959 42.5261 20.9364 42.75 21.5 42.75C22.0636 42.75 22.6041 42.5261 23.0026 42.1276C23.4011 41.7291 23.625 41.1886 23.625 40.625V38.3512C27.365 37.877 30.8413 36.1729 33.5071 33.5071C36.1729 30.8413 37.877 27.365 38.3512 23.625H40.625C41.1886 23.625 41.7291 23.4011 42.1276 23.0026C42.5261 22.6041 42.75 22.0636 42.75 21.5C42.75 20.9364 42.5261 20.3959 42.1276 19.9974C41.7291 19.5989 41.1886 19.375 40.625 19.375ZM21.5 34.25C18.9783 34.25 16.5132 33.5022 14.4165 32.1012C12.3198 30.7002 10.6856 28.709 9.72054 26.3792C8.75552 24.0495 8.50303 21.4859 8.99499 19.0126C9.48695 16.5393 10.7013 14.2675 12.4844 12.4844C14.2675 10.7013 16.5393 9.48695 19.0126 8.99499C21.4859 8.50303 24.0495 8.75552 26.3792 9.72054C28.709 10.6856 30.7002 12.3198 32.1012 14.4165C33.5022 16.5132 34.25 18.9783 34.25 21.5C34.25 24.8815 32.9067 28.1245 30.5156 30.5156C28.1245 32.9067 24.8815 34.25 21.5 34.25Z" fill="#465DFF"/>
</svg>
