<svg width="43" height="43" viewBox="0 0 43 43" fill="none" xmlns="http://www.w3.org/2000/svg">
<path d="M29.0433 15.125C29.3079 15.2257 29.5889 15.2762 29.872 15.2737H38.372C38.9356 15.2737 39.4761 15.0499 39.8746 14.6513C40.2732 14.2528 40.497 13.7123 40.497 13.1487C40.497 12.5852 40.2732 12.0447 39.8746 11.6461C39.4761 11.2476 38.9356 11.0237 38.372 11.0237H34.9933L41.9845 4.03249C42.207 3.84199 42.3877 3.60756 42.5152 3.34392C42.6428 3.08029 42.7144 2.79313 42.7257 2.50048C42.737 2.20782 42.6877 1.91599 42.5809 1.6433C42.4741 1.37061 42.312 1.12295 42.1049 0.915855C41.8978 0.708764 41.6502 0.546716 41.3775 0.439882C41.1048 0.333049 40.813 0.283737 40.5203 0.295041C40.2277 0.306344 39.9405 0.378021 39.6769 0.50557C39.4132 0.63312 39.1788 0.813788 38.9883 1.03624L31.997 8.00624V4.62749C31.997 4.0639 31.7732 3.5234 31.3746 3.12489C30.9761 2.72637 30.4356 2.50249 29.872 2.50249C29.3085 2.50249 28.768 2.72637 28.3694 3.12489C27.9709 3.5234 27.747 4.0639 27.747 4.62749V13.1275C27.7446 13.4106 27.795 13.6917 27.8958 13.9562C28.0002 14.2173 28.1554 14.455 28.3524 14.6556C28.5494 14.8562 28.7842 15.0158 29.0433 15.125ZM37.3095 23.625C36.842 23.625 36.3533 23.4762 35.8858 23.37C34.9391 23.1614 34.0087 22.8844 33.102 22.5412C32.1162 22.1826 31.0326 22.2012 30.0597 22.5935C29.0868 22.9858 28.2933 23.7241 27.832 24.6662L27.3645 25.6225C25.2948 24.4711 23.3929 23.0411 21.712 21.3725C20.0434 19.6916 18.6134 17.7897 17.462 15.72L18.3545 15.125C19.2967 14.6637 20.035 13.8702 20.4273 12.8973C20.8196 11.9244 20.8382 10.8408 20.4795 9.85499C20.1421 8.94638 19.8653 8.01643 19.6508 7.07124C19.5445 6.60374 19.4595 6.11499 19.3958 5.62624C19.1377 4.12943 18.3537 2.77394 17.185 1.80387C16.0162 0.833803 14.5395 0.312906 13.0208 0.334987H6.64579C5.72998 0.326388 4.82307 0.515216 3.9868 0.888614C3.15053 1.26201 2.40453 1.81122 1.79958 2.49884C1.19464 3.18646 0.744954 3.99635 0.481142 4.87338C0.217331 5.75041 0.145586 6.67399 0.270793 7.58124C1.40286 16.4837 5.4686 24.7552 11.8258 31.0893C18.183 37.4235 26.4693 41.4591 35.3758 42.5587H36.1833C37.7503 42.561 39.2633 41.9861 40.4333 40.9437C41.1056 40.3425 41.6426 39.6054 42.0089 38.7812C42.3752 37.957 42.5625 37.0644 42.5583 36.1625V29.7875C42.5323 28.3114 41.9948 26.8902 41.0375 25.7663C40.0803 24.6424 38.7626 23.8856 37.3095 23.625ZM38.372 36.375C38.3717 36.6767 38.307 36.9749 38.1825 37.2497C38.0579 37.5245 37.8762 37.7696 37.6495 37.9687C37.4121 38.1737 37.1345 38.3269 36.8344 38.4184C36.5343 38.5099 36.2185 38.5377 35.907 38.5C27.9487 37.4796 20.5565 33.8388 14.8966 28.1519C9.23658 22.4649 5.63091 15.0556 4.64829 7.09249C4.61447 6.78121 4.64411 6.46631 4.73542 6.16682C4.82673 5.86732 4.97782 5.58945 5.17954 5.34999C5.37868 5.12332 5.6238 4.94165 5.8986 4.81707C6.1734 4.6925 6.47158 4.62787 6.77329 4.62749H13.1483C13.6425 4.61649 14.125 4.77811 14.5128 5.08451C14.9007 5.39092 15.1696 5.82295 15.2733 6.30624C15.3583 6.88707 15.4645 7.46082 15.592 8.02749C15.8375 9.14767 16.1642 10.2485 16.5695 11.3212L13.5945 12.7025C13.3402 12.8192 13.1114 12.985 12.9213 13.1904C12.7311 13.3958 12.5835 13.6367 12.4867 13.8993C12.39 14.1619 12.346 14.441 12.3575 14.7206C12.3689 15.0003 12.4354 15.2749 12.5533 15.5287C15.6116 22.0796 20.8774 27.3454 27.4283 30.4037C27.9456 30.6163 28.5259 30.6163 29.0433 30.4037C29.3083 30.3089 29.5519 30.1624 29.7598 29.9728C29.9677 29.7831 30.1359 29.554 30.2545 29.2987L31.572 26.3237C32.6706 26.7166 33.7918 27.043 34.9295 27.3012C35.4962 27.4287 36.07 27.535 36.6508 27.62C37.1341 27.7237 37.5661 27.9926 37.8725 28.3804C38.1789 28.7683 38.3405 29.2508 38.3295 29.745L38.372 36.375Z" fill="#465DFF"/>
</svg>
