<svg width="47" height="47" viewBox="0 0 47 47" fill="none" xmlns="http://www.w3.org/2000/svg">
<path d="M41.6054 6.22371C40.7289 4.39247 39.3461 2.85067 37.6207 1.78081C35.8953 0.710949 33.8994 0.157817 31.8695 0.18688C29.8395 0.215944 27.8603 0.825987 26.1662 1.94481C24.4721 3.06362 23.1341 4.64437 22.3104 6.49996H12.8754C11.1846 6.49996 9.56311 7.17161 8.36756 8.36715C7.17202 9.5627 6.50037 11.1842 6.50037 12.875V21.375C6.50037 21.9385 6.72425 22.479 7.12277 22.8776C7.52128 23.2761 8.06178 23.5 8.62537 23.5C9.18895 23.5 9.72945 23.2761 10.128 22.8776C10.5265 22.479 10.7504 21.9385 10.7504 21.375V12.875C10.7504 12.3114 10.9743 11.7709 11.3728 11.3724C11.7713 10.9738 12.3118 10.75 12.8754 10.75H18.7829C17.7251 11.9137 17.1347 13.4273 17.1254 15C17.1254 16.6907 17.797 18.3122 18.9926 19.5078C20.1881 20.7033 21.8096 21.375 23.5004 21.375H39.0766C40.927 21.3883 42.7214 20.7415 44.1377 19.5507C45.5541 18.3599 46.4994 16.7032 46.804 14.878C47.1087 13.0529 46.7526 11.1789 45.7997 9.59272C44.8469 8.00652 43.3597 6.81201 41.6054 6.22371ZM39.0766 17.125H23.5004C22.9368 17.125 22.3963 16.9011 21.9978 16.5026C21.5993 16.104 21.3754 15.5635 21.3754 15C21.3754 14.4364 21.5993 13.8959 21.9978 13.4974C22.3963 13.0988 22.9368 12.875 23.5004 12.875C24.064 12.875 24.6045 12.6511 25.003 12.2526C25.4015 11.854 25.6254 11.3135 25.6254 10.75C25.6082 9.23347 26.1323 7.76053 27.1034 6.59566C28.0746 5.43079 29.4292 4.6503 30.924 4.39433C32.4188 4.13837 33.956 4.4237 35.2593 5.1991C36.5627 5.9745 37.547 7.18916 38.0354 8.62496C38.1568 8.99012 38.3752 9.31544 38.6671 9.56619C38.959 9.81694 39.3136 9.98372 39.6929 10.0487C40.5239 10.1864 41.2775 10.6186 41.816 11.2664C42.3545 11.9141 42.6418 12.734 42.6254 13.5762C42.6254 14.0422 42.5336 14.5037 42.3552 14.9343C42.1769 15.3648 41.9155 15.756 41.586 16.0856C41.2564 16.4151 40.8652 16.6765 40.4347 16.8548C40.0041 17.0332 39.5426 17.125 39.0766 17.125ZM38.3754 25.625C37.8118 25.625 37.2713 25.8488 36.8728 26.2474C36.4743 26.6459 36.2504 27.1864 36.2504 27.75V34.125C36.2504 34.6885 36.0265 35.229 35.628 35.6276C35.2295 36.0261 34.689 36.25 34.1254 36.25H29.3229C28.9122 35.1983 28.2775 34.2487 27.4628 33.4671C26.6481 32.6854 25.6731 32.0905 24.6054 31.7237C23.6424 29.6801 22.0531 27.9967 20.0683 26.9178C18.0835 25.8388 15.8065 25.4206 13.5679 25.7239C11.3292 26.0271 9.24547 27.036 7.61919 28.604C5.99291 30.172 4.90875 32.2176 4.52412 34.4437C3.08504 34.9167 1.86141 35.8867 1.07248 37.1798C0.283557 38.473 -0.0191064 40.0048 0.218724 41.5009C0.456555 42.9969 1.21934 44.3594 2.37039 45.3441C3.52145 46.3289 4.98555 46.8716 6.50037 46.875H22.0766C23.8961 46.875 25.6579 46.2371 27.0557 45.0723C28.4534 43.9075 29.3985 42.2896 29.7266 40.5H34.1254C35.8161 40.5 37.4376 39.8283 38.6332 38.6328C39.8287 37.4372 40.5004 35.8157 40.5004 34.125V27.75C40.5004 27.1864 40.2765 26.6459 39.878 26.2474C39.4795 25.8488 38.939 25.625 38.3754 25.625ZM22.0766 42.625H6.50037C5.93678 42.625 5.39628 42.4011 4.99777 42.0026C4.59925 41.604 4.37537 41.0635 4.37537 40.5C4.37537 39.9364 4.59925 39.3959 4.99777 38.9974C5.39628 38.5988 5.93678 38.375 6.50037 38.375C7.06395 38.375 7.60445 38.1511 8.00297 37.7526C8.40148 37.354 8.62537 36.8135 8.62537 36.25C8.60822 34.7335 9.13227 33.2605 10.1034 32.0957C11.0746 30.9308 12.4292 30.1503 13.924 29.8943C15.4188 29.6384 16.956 29.9237 18.2593 30.6991C19.5627 31.4745 20.547 32.6892 21.0354 34.125C21.1568 34.4901 21.3752 34.8154 21.6671 35.0662C21.959 35.3169 22.3136 35.4837 22.6929 35.5487C23.5239 35.6864 24.2775 36.1186 24.816 36.7664C25.3545 37.4141 25.6418 38.234 25.6254 39.0762C25.6254 39.5422 25.5336 40.0037 25.3552 40.4343C25.1769 40.8648 24.9155 41.256 24.586 41.5856C24.2564 41.9151 23.8652 42.1765 23.4347 42.3548C23.0041 42.5332 22.5426 42.625 22.0766 42.625Z" fill="#465DFF"/>
</svg>
