<svg width="47" height="47" viewBox="0 0 47 47" fill="none" xmlns="http://www.w3.org/2000/svg">
<path d="M44.75 34.125H2.25C1.68641 34.125 1.14591 34.3489 0.747398 34.7474C0.348883 35.1459 0.125 35.6864 0.125 36.25C0.125 36.8136 0.348883 37.3541 0.747398 37.7526C1.14591 38.1511 1.68641 38.375 2.25 38.375H44.75C45.3136 38.375 45.8541 38.1511 46.2526 37.7526C46.6511 37.3541 46.875 36.8136 46.875 36.25C46.875 35.6864 46.6511 35.1459 46.2526 34.7474C45.8541 34.3489 45.3136 34.125 44.75 34.125ZM44.75 42.625H2.25C1.68641 42.625 1.14591 42.8489 0.747398 43.2474C0.348883 43.6459 0.125 44.1864 0.125 44.75C0.125 45.3136 0.348883 45.8541 0.747398 46.2526C1.14591 46.6511 1.68641 46.875 2.25 46.875H44.75C45.3136 46.875 45.8541 46.6511 46.2526 46.2526C46.6511 45.8541 46.875 45.3136 46.875 44.75C46.875 44.1864 46.6511 43.6459 46.2526 43.2474C45.8541 42.8489 45.3136 42.625 44.75 42.625ZM10.75 12.875C10.3297 12.875 9.91887 12.9996 9.56941 13.2331C9.21996 13.4666 8.94759 13.7985 8.78676 14.1868C8.62592 14.5751 8.58384 15.0024 8.66583 15.4146C8.74782 15.8268 8.95021 16.2054 9.2474 16.5026C9.54459 16.7998 9.92322 17.0022 10.3354 17.0842C10.7476 17.1662 11.1749 17.1241 11.5632 16.9632C11.9515 16.8024 12.2834 16.53 12.5169 16.1806C12.7504 15.8311 12.875 15.4203 12.875 15C12.875 14.4364 12.6511 13.8959 12.2526 13.4974C11.8541 13.0989 11.3136 12.875 10.75 12.875ZM40.5 0.125H6.5C4.80925 0.125 3.18774 0.79665 1.99219 1.99219C0.79665 3.18774 0.125 4.80925 0.125 6.5V23.5C0.125 25.1908 0.79665 26.8123 1.99219 28.0078C3.18774 29.2034 4.80925 29.875 6.5 29.875H40.5C42.1908 29.875 43.8123 29.2034 45.0078 28.0078C46.2034 26.8123 46.875 25.1908 46.875 23.5V6.5C46.875 4.80925 46.2034 3.18774 45.0078 1.99219C43.8123 0.79665 42.1908 0.125 40.5 0.125ZM42.625 23.5C42.625 24.0636 42.4011 24.6041 42.0026 25.0026C41.6041 25.4011 41.0636 25.625 40.5 25.625H6.5C5.93641 25.625 5.39591 25.4011 4.9974 25.0026C4.59888 24.6041 4.375 24.0636 4.375 23.5V6.5C4.375 5.93641 4.59888 5.39591 4.9974 4.9974C5.39591 4.59888 5.93641 4.375 6.5 4.375H40.5C41.0636 4.375 41.6041 4.59888 42.0026 4.9974C42.4011 5.39591 42.625 5.93641 42.625 6.5V23.5ZM23.5 8.625C22.2391 8.625 21.0066 8.99889 19.9582 9.69938C18.9099 10.3999 18.0928 11.3955 17.6103 12.5604C17.1278 13.7253 17.0015 15.0071 17.2475 16.2437C17.4935 17.4803 18.1006 18.6162 18.9922 19.5078C19.8838 20.3994 21.0197 21.0065 22.2563 21.2525C23.4929 21.4985 24.7747 21.3722 25.9396 20.8897C27.1045 20.4072 28.1001 19.5901 28.8006 18.5418C29.5011 17.4934 29.875 16.2609 29.875 15C29.875 13.3092 29.2034 11.6877 28.0078 10.4922C26.8123 9.29665 25.1908 8.625 23.5 8.625ZM23.5 17.125C23.0797 17.125 22.6689 17.0004 22.3194 16.7669C21.97 16.5334 21.6976 16.2015 21.5368 15.8132C21.3759 15.4249 21.3338 14.9976 21.4158 14.5854C21.4978 14.1732 21.7002 13.7946 21.9974 13.4974C22.2946 13.2002 22.6732 12.9978 23.0854 12.9158C23.4976 12.8338 23.9249 12.8759 24.3132 13.0368C24.7015 13.1976 25.0334 13.47 25.2669 13.8194C25.5004 14.1689 25.625 14.5797 25.625 15C25.625 15.5636 25.4011 16.1041 25.0026 16.5026C24.6041 16.9011 24.0636 17.125 23.5 17.125ZM36.25 12.875C35.8297 12.875 35.4189 12.9996 35.0694 13.2331C34.72 13.4666 34.4476 13.7985 34.2868 14.1868C34.1259 14.5751 34.0838 15.0024 34.1658 15.4146C34.2478 15.8268 34.4502 16.2054 34.7474 16.5026C35.0446 16.7998 35.4232 17.0022 35.8354 17.0842C36.2476 17.1662 36.6749 17.1241 37.0632 16.9632C37.4515 16.8024 37.7834 16.53 38.0169 16.1806C38.2504 15.8311 38.375 15.4203 38.375 15C38.375 14.4364 38.1511 13.8959 37.7526 13.4974C37.3541 13.0989 36.8136 12.875 36.25 12.875Z" fill="#465DFF"/>
</svg>
