<svg width="43" height="43" viewBox="0 0 43 43" fill="none" xmlns="http://www.w3.org/2000/svg">
<path d="M27.28 14.6788L18.1638 23.8162L14.6575 20.31C14.467 20.0876 14.2326 19.9069 13.9689 19.7793C13.7053 19.6518 13.4182 19.5801 13.1255 19.5688C12.8328 19.5575 12.541 19.6068 12.2683 19.7136C11.9956 19.8205 11.748 19.9825 11.5409 20.1896C11.3338 20.3967 11.1717 20.6444 11.0649 20.9171C10.9581 21.1898 10.9088 21.4816 10.9201 21.7742C10.9314 22.0669 11.003 22.354 11.1306 22.6177C11.2581 22.8813 11.4388 23.1158 11.6613 23.3063L16.655 28.3213C16.8536 28.5182 17.0891 28.674 17.348 28.7798C17.6069 28.8855 17.8841 28.9391 18.1638 28.9375C18.7212 28.9352 19.2555 28.7138 19.6513 28.3213L30.2763 17.6963C30.4754 17.4987 30.6335 17.2637 30.7414 17.0047C30.8493 16.7458 30.9048 16.468 30.9048 16.1875C30.9048 15.907 30.8493 15.6292 30.7414 15.3703C30.6335 15.1113 30.4754 14.8763 30.2763 14.6788C29.8781 14.283 29.3395 14.0608 28.7781 14.0608C28.2167 14.0608 27.6782 14.283 27.28 14.6788ZM21.5 0.25C17.2972 0.25 13.1887 1.49629 9.69414 3.83127C6.1996 6.16625 3.47593 9.48505 1.86757 13.368C0.259207 17.2509 -0.161614 21.5236 0.658322 25.6457C1.47826 29.7678 3.50212 33.5542 6.47399 36.526C9.44586 39.4979 13.2322 41.5218 17.3543 42.3417C21.4764 43.1616 25.7491 42.7408 29.632 41.1324C33.515 39.5241 36.8338 36.8004 39.1687 33.3059C41.5037 29.8113 42.75 25.7029 42.75 21.5C42.75 18.7094 42.2004 15.9461 41.1325 13.368C40.0645 10.7898 38.4993 8.44723 36.526 6.47398C34.5528 4.50074 32.2102 2.93547 29.632 1.86756C27.0539 0.799648 24.2906 0.25 21.5 0.25ZM21.5 38.5C18.1377 38.5 14.851 37.503 12.0553 35.635C9.25968 33.767 7.08075 31.112 5.79406 28.0056C4.50737 24.8993 4.17071 21.4811 4.82666 18.1835C5.48261 14.8858 7.1017 11.8567 9.47919 9.47919C11.8567 7.10169 14.8858 5.4826 18.1835 4.82665C21.4812 4.1707 24.8993 4.50736 28.0056 5.79405C31.112 7.08074 33.767 9.25967 35.635 12.0553C37.503 14.8509 38.5 18.1377 38.5 21.5C38.5 26.0087 36.7089 30.3327 33.5208 33.5208C30.3327 36.7089 26.0087 38.5 21.5 38.5Z" fill="#465DFF"/>
</svg>
