<svg width="35" height="43" viewBox="0 0 35 43" fill="none" xmlns="http://www.w3.org/2000/svg">
<path d="M28.125 15.125V10.875C28.125 8.05707 27.0056 5.35456 25.013 3.36199C23.0204 1.36942 20.3179 0.25 17.5 0.25C14.6821 0.25 11.9796 1.36942 9.98699 3.36199C7.99442 5.35456 6.875 8.05707 6.875 10.875V15.125C5.18425 15.125 3.56274 15.7966 2.36719 16.9922C1.17165 18.1877 0.5 19.8092 0.5 21.5V36.375C0.5 38.0658 1.17165 39.6873 2.36719 40.8828C3.56274 42.0784 5.18425 42.75 6.875 42.75H28.125C29.8158 42.75 31.4373 42.0784 32.6328 40.8828C33.8284 39.6873 34.5 38.0658 34.5 36.375V21.5C34.5 19.8092 33.8284 18.1877 32.6328 16.9922C31.4373 15.7966 29.8158 15.125 28.125 15.125ZM11.125 10.875C11.125 9.18425 11.7966 7.56274 12.9922 6.36719C14.1877 5.17165 15.8092 4.5 17.5 4.5C19.1908 4.5 20.8123 5.17165 22.0078 6.36719C23.2034 7.56274 23.875 9.18425 23.875 10.875V15.125H11.125V10.875ZM30.25 36.375C30.25 36.9386 30.0261 37.4791 29.6276 37.8776C29.2291 38.2761 28.6886 38.5 28.125 38.5H6.875C6.31141 38.5 5.77091 38.2761 5.3724 37.8776C4.97388 37.4791 4.75 36.9386 4.75 36.375V21.5C4.75 20.9364 4.97388 20.3959 5.3724 19.9974C5.77091 19.5989 6.31141 19.375 6.875 19.375H28.125C28.6886 19.375 29.2291 19.5989 29.6276 19.9974C30.0261 20.3959 30.25 20.9364 30.25 21.5V36.375Z" fill="#465DFF"/>
</svg>
