<svg width="39" height="43" viewBox="0 0 39 43" fill="none" xmlns="http://www.w3.org/2000/svg">
<path d="M28 25.75H11C10.4364 25.75 9.89591 25.9739 9.4974 26.3724C9.09888 26.7709 8.875 27.3114 8.875 27.875C8.875 28.4386 9.09888 28.9791 9.4974 29.3776C9.89591 29.7761 10.4364 30 11 30H28C28.5636 30 29.1041 29.7761 29.5026 29.3776C29.9011 28.9791 30.125 28.4386 30.125 27.875C30.125 27.3114 29.9011 26.7709 29.5026 26.3724C29.1041 25.9739 28.5636 25.75 28 25.75ZM28 17.25H15.25C14.6864 17.25 14.1459 17.4739 13.7474 17.8724C13.3489 18.2709 13.125 18.8114 13.125 19.375C13.125 19.9386 13.3489 20.4791 13.7474 20.8776C14.1459 21.2761 14.6864 21.5 15.25 21.5H28C28.5636 21.5 29.1041 21.2761 29.5026 20.8776C29.9011 20.4791 30.125 19.9386 30.125 19.375C30.125 18.8114 29.9011 18.2709 29.5026 17.8724C29.1041 17.4739 28.5636 17.25 28 17.25ZM36.5 4.5H30.125V2.375C30.125 1.81141 29.9011 1.27091 29.5026 0.872398C29.1041 0.473883 28.5636 0.25 28 0.25C27.4364 0.25 26.8959 0.473883 26.4974 0.872398C26.0989 1.27091 25.875 1.81141 25.875 2.375V4.5H21.625V2.375C21.625 1.81141 21.4011 1.27091 21.0026 0.872398C20.6041 0.473883 20.0636 0.25 19.5 0.25C18.9364 0.25 18.3959 0.473883 17.9974 0.872398C17.5989 1.27091 17.375 1.81141 17.375 2.375V4.5H13.125V2.375C13.125 1.81141 12.9011 1.27091 12.5026 0.872398C12.1041 0.473883 11.5636 0.25 11 0.25C10.4364 0.25 9.89591 0.473883 9.4974 0.872398C9.09888 1.27091 8.875 1.81141 8.875 2.375V4.5H2.5C1.93641 4.5 1.39591 4.72388 0.997398 5.1224C0.598883 5.52091 0.375 6.06141 0.375 6.625V36.375C0.375 38.0658 1.04665 39.6873 2.24219 40.8828C3.43774 42.0784 5.05925 42.75 6.75 42.75H32.25C33.9408 42.75 35.5623 42.0784 36.7578 40.8828C37.9534 39.6873 38.625 38.0658 38.625 36.375V6.625C38.625 6.06141 38.4011 5.52091 38.0026 5.1224C37.6041 4.72388 37.0636 4.5 36.5 4.5ZM34.375 36.375C34.375 36.9386 34.1511 37.4791 33.7526 37.8776C33.3541 38.2761 32.8136 38.5 32.25 38.5H6.75C6.18641 38.5 5.64591 38.2761 5.2474 37.8776C4.84888 37.4791 4.625 36.9386 4.625 36.375V8.75H8.875V10.875C8.875 11.4386 9.09888 11.9791 9.4974 12.3776C9.89591 12.7761 10.4364 13 11 13C11.5636 13 12.1041 12.7761 12.5026 12.3776C12.9011 11.9791 13.125 11.4386 13.125 10.875V8.75H17.375V10.875C17.375 11.4386 17.5989 11.9791 17.9974 12.3776C18.3959 12.7761 18.9364 13 19.5 13C20.0636 13 20.6041 12.7761 21.0026 12.3776C21.4011 11.9791 21.625 11.4386 21.625 10.875V8.75H25.875V10.875C25.875 11.4386 26.0989 11.9791 26.4974 12.3776C26.8959 12.7761 27.4364 13 28 13C28.5636 13 29.1041 12.7761 29.5026 12.3776C29.9011 11.9791 30.125 11.4386 30.125 10.875V8.75H34.375V36.375Z" fill="#465DFF"/>
</svg>
