<svg width="119" height="210" viewBox="0 0 119 210" fill="none" xmlns="http://www.w3.org/2000/svg">
<g filter="url(#filter0_d_825_3859)">
<path d="M92.1583 189.087C92.6904 189.235 93.2422 188.923 93.3874 188.391C101.512 158.571 101.802 127.153 94.2192 97.1792C86.6366 67.2056 71.4419 39.7043 50.1145 17.3357C49.7334 16.9359 49.0998 16.9243 48.7023 17.3077L19.0541 45.8929C18.6565 46.2762 18.6454 46.9092 19.0259 47.3096C35.1353 64.2653 46.6153 85.0853 52.354 107.77C58.0927 130.455 57.8941 154.229 51.7853 176.806C51.6411 177.339 51.9518 177.89 52.4839 178.039L92.1583 189.087Z" fill="white"/>
</g>
<defs>
<filter id="filter0_d_825_3859" x="0.28977" y="0.951268" width="117.87" height="209.013" filterUnits="userSpaceOnUse" color-interpolation-filters="sRGB">
<feFlood flood-opacity="0" result="BackgroundImageFix"/>
<feColorMatrix in="SourceAlpha" type="matrix" values="0 0 0 0 0 0 0 0 0 0 0 0 0 0 0 0 0 0 127 0" result="hardAlpha"/>
<feOffset dy="2.38171"/>
<feGaussianBlur stdDeviation="9.22914"/>
<feComposite in2="hardAlpha" operator="out"/>
<feColorMatrix type="matrix" values="0 0 0 0 0 0 0 0 0 0 0 0 0 0 0 0 0 0 0.06 0"/>
<feBlend mode="normal" in2="BackgroundImageFix" result="effect1_dropShadow_825_3859"/>
<feBlend mode="normal" in="SourceGraphic" in2="effect1_dropShadow_825_3859" result="shape"/>
</filter>
</defs>
</svg>
