<svg width="65" height="57" viewBox="0 0 65 57" fill="none" xmlns="http://www.w3.org/2000/svg">
<path d="M15.464 31.9199C15.071 32.0622 14.7141 32.2891 14.4186 32.5846C14.1231 32.8801 13.8962 33.237 13.754 33.6299C13.5236 34.2054 13.4672 34.8358 13.5918 35.4431C13.7164 36.0503 14.0164 36.6076 14.4547 37.0459C14.893 37.4842 15.4503 37.7842 16.0575 37.9088C16.6648 38.0333 17.2952 37.977 17.8707 37.7466C18.2544 37.5862 18.6078 37.3613 18.9156 37.0816C19.1954 36.7738 19.4203 36.4204 19.5807 36.0366C19.7579 35.6608 19.8447 35.2487 19.834 34.8333C19.8223 33.9948 19.4943 33.1918 18.9156 32.5849C18.4703 32.1455 17.9049 31.8479 17.2906 31.7295C16.6763 31.6112 16.0407 31.6774 15.464 31.9199ZM57.074 19.2533L52.7673 6.49161C52.1104 4.6335 50.8918 3.0257 49.2805 1.89095C47.6692 0.756199 45.7448 0.150676 43.774 0.158274H21.2273C19.2565 0.150676 17.3321 0.756199 15.7208 1.89095C14.1095 3.0257 12.8909 4.6335 12.234 6.49161L7.92732 19.3483C5.90168 19.8787 4.10805 21.0635 2.82528 22.7186C1.5425 24.3736 0.84246 26.406 0.833984 28.4999V41.1666C0.839493 43.1266 1.4511 45.0369 2.58496 46.6356C3.71881 48.2344 5.31941 49.4433 7.16732 50.0966V53.8333C7.16732 54.6731 7.50095 55.4786 8.09481 56.0724C8.68868 56.6663 9.49413 56.9999 10.334 56.9999C11.1738 56.9999 11.9793 56.6663 12.5732 56.0724C13.167 55.4786 13.5007 54.6731 13.5007 53.8333V50.6666H51.5006V53.8333C51.5006 54.6731 51.8343 55.4786 52.4281 56.0724C53.022 56.6663 53.8275 56.9999 54.6673 56.9999C55.5072 56.9999 56.3126 56.6663 56.9065 56.0724C57.5004 55.4786 57.834 54.6731 57.834 53.8333V50.0966C59.6819 49.4433 61.2825 48.2344 62.4163 46.6356C63.5502 45.0369 64.1618 43.1266 64.1673 41.1666V28.4999C64.1588 26.406 63.4588 24.3736 62.176 22.7186C60.8932 21.0635 59.0996 19.8787 57.074 19.3483V19.2533ZM18.219 8.48661C18.4314 7.85764 18.8362 7.31135 19.376 6.92494C19.9158 6.53853 20.5634 6.33156 21.2273 6.33327H43.774C44.4645 6.29723 45.1479 6.48821 45.7197 6.87704C46.2915 7.26586 46.7203 7.83117 46.9406 8.48661L50.2657 18.9999H14.7357L18.219 8.48661ZM57.834 41.1666C57.834 42.0065 57.5004 42.8119 56.9065 43.4058C56.3126 43.9996 55.5072 44.3333 54.6673 44.3333H10.334C9.49413 44.3333 8.68868 43.9996 8.09481 43.4058C7.50095 42.8119 7.16732 42.0065 7.16732 41.1666V28.4999C7.16732 27.6601 7.50095 26.8546 8.09481 26.2608C8.68868 25.6669 9.49413 25.3333 10.334 25.3333H54.6673C55.5072 25.3333 56.3126 25.6669 56.9065 26.2608C57.5004 26.8546 57.834 27.6601 57.834 28.4999V41.1666ZM47.1306 31.9199C46.7377 32.0622 46.3808 32.2891 46.0853 32.5846C45.7898 32.8801 45.5629 33.237 45.4206 33.6299C45.1903 34.2054 45.1339 34.8358 45.2585 35.4431C45.383 36.0503 45.6831 36.6076 46.1214 37.0459C46.5597 37.4842 47.117 37.7842 47.7242 37.9088C48.3314 38.0333 48.9618 37.977 49.5373 37.7466C49.9303 37.6044 50.2872 37.3775 50.5827 37.082C50.8782 36.7865 51.1051 36.4296 51.2473 36.0366C51.4246 35.6608 51.5114 35.2487 51.5006 34.8333C51.489 33.9948 51.161 33.1918 50.5823 32.5849C50.137 32.1455 49.5715 31.8479 48.9572 31.7295C48.3429 31.6112 47.7073 31.6774 47.1306 31.9199ZM35.6673 31.6666H29.334C28.4941 31.6666 27.6887 32.0002 27.0948 32.5941C26.5009 33.188 26.1673 33.9934 26.1673 34.8333C26.1673 35.6731 26.5009 36.4786 27.0948 37.0724C27.6887 37.6663 28.4941 37.9999 29.334 37.9999H35.6673C36.5072 37.9999 37.3126 37.6663 37.9065 37.0724C38.5004 36.4786 38.834 35.6731 38.834 34.8333C38.834 33.9934 38.5004 33.188 37.9065 32.5941C37.3126 32.0002 36.5072 31.6666 35.6673 31.6666Z" fill="#465DFF"/>
</svg>
