<svg width="64" height="65" viewBox="0 0 64 65" fill="none" xmlns="http://www.w3.org/2000/svg">
<path d="M43.2486 34.7483C46.3531 32.3057 48.6192 28.9562 49.7315 25.1658C50.8438 21.3754 50.747 17.3325 49.4546 13.5996C48.1621 9.86678 45.7384 6.62956 42.5205 4.33836C39.3025 2.04716 35.4505 0.815918 31.5002 0.815918C27.55 0.815918 23.6979 2.04716 20.48 4.33836C17.2621 6.62956 14.8383 9.86678 13.5459 13.5996C12.2535 17.3325 12.1567 21.3754 13.269 25.1658C14.3813 28.9562 16.6473 32.3057 19.7519 34.7483C14.4321 36.8796 9.79048 40.4146 6.32173 44.9764C2.85298 49.5382 0.687183 54.9558 0.0552336 60.6517C0.00948985 61.0675 0.0461027 61.4883 0.162981 61.89C0.279859 62.2917 0.474714 62.6665 0.73642 62.9929C1.26496 63.652 2.03371 64.0743 2.87357 64.1667C3.71342 64.259 4.55557 64.014 5.21476 63.4855C5.87395 62.9569 6.29618 62.1882 6.38857 61.3483C7.08392 55.1581 10.0356 49.4411 14.6796 45.2895C19.3236 41.1379 25.3344 38.8429 31.5636 38.8429C37.7927 38.8429 43.8035 41.1379 48.4475 45.2895C53.0916 49.4411 56.0432 55.1581 56.7386 61.3483C56.8247 62.1264 57.1959 62.8451 57.7807 63.3655C58.3655 63.886 59.1224 64.1714 59.9052 64.1667H60.2536C61.0837 64.0711 61.8424 63.6514 62.3643 62.9989C62.8863 62.3465 63.1293 61.5141 63.0402 60.6833C62.4053 54.9713 60.2278 49.5398 56.7413 44.971C53.2547 40.4022 48.5905 36.8683 43.2486 34.7483V34.7483ZM31.5002 32.5C28.995 32.5 26.546 31.7571 24.463 30.3653C22.38 28.9734 20.7565 26.9952 19.7978 24.6806C18.839 22.3661 18.5882 19.8193 19.077 17.3622C19.5657 14.9051 20.7721 12.6481 22.5435 10.8766C24.315 9.10517 26.572 7.89879 29.0291 7.41004C31.4862 6.9213 34.033 7.17214 36.3476 8.13085C38.6621 9.08956 40.6403 10.7131 42.0322 12.7961C43.424 14.8791 44.1669 17.3281 44.1669 19.8333C44.1669 23.1927 42.8324 26.4145 40.4569 28.79C38.0815 31.1655 34.8596 32.5 31.5002 32.5Z" fill="#465DFF"/>
</svg>
