<svg width="65" height="73" viewBox="0 0 65 73" fill="none" xmlns="http://www.w3.org/2000/svg">
<path d="M61 49.1667V23.8333C60.9989 22.7227 60.7057 21.6319 60.1499 20.6704C59.5941 19.7088 58.7952 18.9103 57.8333 18.355L35.6667 5.68835C34.7039 5.13248 33.6117 4.83984 32.5 4.83984C31.3883 4.83984 30.2961 5.13248 29.3333 5.68835L7.16667 18.355C6.20483 18.9103 5.40594 19.7088 4.85013 20.6704C4.29432 21.6319 4.00114 22.7227 4 23.8333V49.1667C4.00114 50.2773 4.29432 51.3681 4.85013 52.3297C5.40594 53.2912 6.20483 54.0897 7.16667 54.645L29.3333 67.3117C30.2961 67.8676 31.3883 68.1602 32.5 68.1602C33.6117 68.1602 34.7039 67.8676 35.6667 67.3117L57.8333 54.645C58.7952 54.0897 59.5941 53.2912 60.1499 52.3297C60.7057 51.3681 60.9989 50.2773 61 49.1667Z" stroke="#465DFF" stroke-width="8" stroke-linecap="round" stroke-linejoin="round"/>
</svg>
