<svg width="234" height="146" viewBox="0 0 234 146" fill="none" xmlns="http://www.w3.org/2000/svg">
<g filter="url(#filter0_d_825_3858)">
<path d="M202.467 34.5366C202.607 34.0024 202.288 33.4554 201.753 33.3183C171.813 25.6473 140.394 25.8355 110.539 33.8728C80.6842 41.9101 53.417 57.521 31.3751 79.1859C30.9812 79.5731 30.9792 80.2067 31.3686 80.5984L60.4011 109.809C60.7904 110.2 61.4235 110.202 61.8181 109.815C78.5269 93.4501 99.1701 81.655 121.765 75.5722C144.36 69.4894 168.135 69.3267 190.801 75.0916C191.337 75.2277 191.883 74.9086 192.023 74.3744L202.467 34.5366Z" fill="white"/>
</g>
<defs>
<filter id="filter0_d_825_3858" x="0.078125" y="0.70166" width="233.422" height="144.402" filterUnits="userSpaceOnUse" color-interpolation-filters="sRGB">
<feFlood flood-opacity="0" result="BackgroundImageFix"/>
<feColorMatrix in="SourceAlpha" type="matrix" values="0 0 0 0 0 0 0 0 0 0 0 0 0 0 0 0 0 0 127 0" result="hardAlpha"/>
<feOffset dy="4"/>
<feGaussianBlur stdDeviation="15.5"/>
<feComposite in2="hardAlpha" operator="out"/>
<feColorMatrix type="matrix" values="0 0 0 0 0 0 0 0 0 0 0 0 0 0 0 0 0 0 0.06 0"/>
<feBlend mode="normal" in2="BackgroundImageFix" result="effect1_dropShadow_825_3858"/>
<feBlend mode="normal" in="SourceGraphic" in2="effect1_dropShadow_825_3858" result="shape"/>
</filter>
</defs>
</svg>
